<svg enable-background="new 0 0 1024 1024" viewBox="0 0 1024 1024" xmlns="http://www.w3.org/2000/svg"><circle cx="512" cy="512" fill="#76bc21" r="512"/><g fill="#fff"><path d="m376.9 527.4 90.1-61.7v-59.7h-212.9s-21.8 0-21.8 21.8v.6z"/><path d="m254.1 618h212.9v-120.7l-84.3 57.5c-6 4.1-12 0-12 0l-138.3-95.1v136.5s0 21.8 21.7 21.8"/><path d="m742.6 618h49v-136.1c0-58.3-30.9-75.9-77-75.9-24.2 0-44.8 5.4-60 11.4-7.8-4.9-19.9-11.4-48.6-11.4-25.6 0-65.7 8.6-79.4 19v193h48.5v-165.9c11.3-2.8 19-4.9 31.5-4.8 19.6.1 27.6 8.6 28.2 35.9v134.8h48.3l-.3-137.8c0-19.4-3.8-28.1-3.8-28.1 10-3.3 19.6-4.8 33.7-4.8 22.1 0 29.2 9.1 30 36.4z"/></g></svg>
